<svg version="1.2" baseProfile="tiny-ps" xmlns="http://www.w3.org/2000/svg" viewBox="0 0 140 23" width="140" height="23">
	<title>MAGbank</title>
	<style>
		tspan { white-space:pre }
	</style>
	<path fill="#ffffff" aria-label="MAGbank"  d="M24.55 1.63L14.29 14.71L9.04 1.63L5.08 1.63L0.88 22.63L5.44 22.63L7.96 10.03L12.28 20.41L14.44 20.41L22.45 10.15L19.99 22.63L24.55 22.63L28.72 1.63ZM43.21 22.63L48.07 22.63L42.91 1.63L38.11 1.63L24.52 22.63L29.71 22.63L32.44 18.13L42.22 18.13ZM34.69 14.44L39.64 6.34L41.41 14.44ZM62.86 18.1C61.75 18.61 60.61 18.85 59.38 18.85C55.39 18.85 53.29 16.72 53.29 13.57C53.29 8.95 56.44 5.41 61.36 5.41C63.7 5.41 65.44 6.07 66.85 7.75L70.33 4.93C68.53 2.56 65.59 1.27 61.57 1.27C53.62 1.27 48.37 6.7 48.37 13.87C48.37 19.3 52.39 22.99 58.75 22.99C61.78 22.99 64.66 22.06 66.79 20.44L68.53 11.8L64.09 11.8ZM79.87 6.85C77.11 6.85 74.86 7.99 73.36 9.91L75.25 0.37L73.75 0.37L69.31 22.63L70.78 22.63L71.56 18.64C72.31 21.25 74.47 22.75 77.77 22.75C82.9 22.75 86.65 18.76 86.65 13.36C86.65 9.34 83.92 6.85 79.87 6.85ZM77.8 21.4C74.26 21.4 72.22 19.48 72.22 16.15C72.22 11.53 75.34 8.2 79.57 8.2C83.08 8.2 85.12 10.12 85.12 13.45C85.12 18.04 82.03 21.4 77.8 21.4ZM104.08 6.97L103.3 10.87C102.55 8.32 100.39 6.85 97.12 6.85C91.99 6.85 88.27 10.84 88.27 16.24C88.27 20.26 90.97 22.75 95.02 22.75C97.81 22.75 100.12 21.55 101.62 19.57L101.02 22.63L102.46 22.63L105.58 6.97ZM95.32 21.4C91.81 21.4 89.77 19.48 89.77 16.15C89.77 11.56 92.89 8.2 97.12 8.2C100.63 8.2 102.67 10.12 102.67 13.45C102.67 18.07 99.55 21.4 95.32 21.4ZM116.98 6.85C114.31 6.85 112.03 7.81 110.5 9.94L111.1 6.97L109.63 6.97L106.51 22.63L108.01 22.63L109.72 14.11C110.5 10.21 113.02 8.2 116.59 8.2C119.53 8.2 121 9.64 121 12.07C121 12.55 120.97 13.03 120.85 13.57L119.05 22.63L120.55 22.63L122.35 13.57C122.47 12.97 122.53 12.4 122.53 11.86C122.53 8.77 120.58 6.85 116.98 6.85ZM141.13 6.97L138.94 6.97L127.27 16.06L130.39 0.37L128.89 0.37L124.45 22.63L125.95 22.63L126.88 18.01L131.74 14.26L136.81 22.63L138.55 22.63L132.91 13.36Z" />
</svg>